<svg xmlns="http://www.w3.org/2000/svg" width="306.667" height="292" version="1.0" viewBox="0 0 230 219"><path d="M101.8 45.6 92 51.1v30.4L85.5 85 79 88.5v22.6l5.8-3.2c3.1-1.8 10.4-6 16.2-9.4l10.5-6 .3-15.2.3-15.2 8.9-5.2c5-2.8 9-5.5 9-5.9 0-.6-17.3-11-18.2-11-.2 0-4.7 2.5-10 5.6z"/><path d="M49.2 75.7 40 81.2l.2 26.5.3 26.6L79 156.4l38.5 22.2.3-26.1.2-26.1 9.5-5.4c5.2-3 9.5-5.6 9.5-5.9 0-.4-4.3-3-9.5-5.9l-9.4-5.4-9.6 5.7-9.5 5.6V130c0 8.3-.2 15-.5 15s-9.3-5.1-20-11.3L59 122.5v-30l9.5-5.3c5.2-3 9.5-5.7 9.5-6 0-.7-18.3-11.3-19.1-11.1-.2 0-4.6 2.5-9.7 5.6zM160.5 79.5l-9 5.3-.5 15.3-.5 15.3-6.2 3.6-6.3 3.5v22.6l2.8-1.6c1.5-.8 8.8-5 16.2-9.3l13.5-7.8.5-15.4.5-15.4 8.8-5c4.8-2.8 8.7-5.3 8.7-5.7 0-.8-17.6-10.9-18.7-10.8-.5 0-4.8 2.5-9.8 5.4z"/></svg>